<svg width="100" height="300" viewBox="0 0 100 300" preserveAspectRatio="none" xmlns="http://www.w3.org/2000/svg">
  <rect x="0" y="0" width="100" height="20" fill="#0b1f56"/>
  <rect x="0" y="20" width="100" height="20" fill="#122d68"/>
  <rect x="0" y="40" width="100" height="20" fill="#1a3977"/>
  <rect x="0" y="60" width="100" height="20" fill="#224786"/>
  <rect x="0" y="80" width="100" height="20" fill="#2a5493"/>
  <rect x="0" y="100" width="100" height="20" fill="#3461a0"/>
  <rect x="0" y="120" width="100" height="20" fill="#3f6fae"/>
  <rect x="0" y="140" width="100" height="20" fill="#4a7cbb"/>
  <rect x="0" y="160" width="100" height="20" fill="#5e91ca"/>
  <rect x="0" y="180" width="100" height="20" fill="#76a8d8"/>
  <rect x="0" y="200" width="100" height="20" fill="#92c0e4"/>
  <rect x="0" y="220" width="100" height="20" fill="#afd3ec"/>
  <rect x="0" y="240" width="100" height="20" fill="#cbe4f3"/>
  <rect x="0" y="260" width="100" height="20" fill="#e2f0f8"/>
  <rect x="0" y="280" width="100" height="20" fill="#ffffff"/>
</svg>
