<svg width="1800" height="1200" viewBox="0 0 1800 1200" xmlns="http://www.w3.org/2000/svg">
  <rect x="0" y="0" width="1800" height="1200" fill="#13273d"/>

  <rect x="60" y="60" width="260" height="180" rx="14" fill="#2b67a8"/>
  <rect x="420" y="80" width="340" height="220" rx="16" fill="#2f90b5"/>
  <rect x="840" y="80" width="300" height="180" rx="16" fill="#4e5fcc"/>
  <rect x="1240" y="90" width="430" height="240" rx="16" fill="#257f60"/>

  <rect x="90" y="360" width="360" height="260" rx="16" fill="#3177ba"/>
  <rect x="520" y="360" width="430" height="260" rx="16" fill="#3ea3c8"/>
  <rect x="1030" y="380" width="300" height="220" rx="16" fill="#7a4ec9"/>
  <rect x="1380" y="360" width="320" height="260" rx="16" fill="#cf8f30"/>

  <rect x="80" y="700" width="280" height="180" rx="16" fill="#267d5f"/>
  <rect x="430" y="700" width="380" height="220" rx="16" fill="#c86c2f"/>
  <rect x="890" y="700" width="420" height="260" rx="16" fill="#4f70d0"/>
  <rect x="1390" y="720" width="300" height="240" rx="16" fill="#2f9bc1"/>

  <circle cx="520" cy="1040" r="120" fill="#3fc3d6"/>
  <circle cx="1420" cy="1030" r="150" fill="#5f88dc"/>
</svg>
